<?xml version="1.0" encoding="UTF-8" standalone="no"?>
<!DOCTYPE svg  PUBLIC '-//W3C//DTD SVG 1.1//EN'  'http://www.w3.org/Graphics/SVG/1.1/DTD/svg11.dtd'>
<svg xmlns="http://www.w3.org/2000/svg">
<defs>
<font id="MICT-f2" horiz-adv-x="213">
<font-face underline-position="-50" font-weight="600" descent="-200" panose-1="2 15 6 6 2 0 0 2 0 4" units-per-em="1000" unicode-range="U+0021-20AC" bbox="-110 -256 1078 934" x-height="553" underline-thickness="50" font-family="MICT" ascent="800" cap-height="733"/>
<missing-glyph horiz-adv-x="1000"/>
<glyph glyph-name=".notdef" horiz-adv-x="1000"/>
<glyph glyph-name=".null" horiz-adv-x="0"/>
<glyph glyph-name="nonmarkingreturn" horiz-adv-x="1000"/>
<glyph glyph-name="exclam" d="M163 53q0 -27 -15.5 -42.5t-42.5 -15.5q-24 0 -40.5 15.5t-16.5 42.5v61q0 25 16.5 41t40.5 16q27 0 42.5 -16t15.5 -41v-61zM163 285q0 -25 -15.5 -41t-42.5 -16q-24 0 -40.5 16t-16.5 41v391q0 26 16.5 41.5t40.5 15.5q27 0 42.5 -15.5t15.5 -41.5v-391z" unicode="!"/>
<glyph glyph-name="quotedbl" horiz-adv-x="359" unicode='&quot;' d="M309 542q0 -23 -13.5 -36t-36.5 -13t-36.5 13t-13.5 36v181q0 23 13.5 36.5t36.5 13.5t36.5 -13.5t13.5 -36.5v-181zM149 542q0 -23 -13.5 -36t-36.5 -13q-21 0 -35.5 13t-14.5 36v181q0 23 14.5 36.5t35.5 13.5q23 0 36.5 -13.5t13.5 -36.5v-181z"/>
<glyph glyph-name="numbersign" horiz-adv-x="619" unicode="#" d="M262 349h77l24 79h-76zM213 528l56 170q6 18 19.5 26.5t27.5 8.5q18 0 33.5 -11.5t15.5 -37.5q0 -9 -3 -21l-43 -135h76l55 170q6 18 19.5 26.5t27.5 8.5q19 0 34.5 -12t15.5 -37q0 -10 -4 -21l-42 -135h29q23 0 36.5 -14.5t13.5 -35.5q0 -23 -13.5 -36.5t-36.5 -13.5 h-62l-25 -79h58q23 0 36.5 -13.5t13.5 -36.5t-13.5 -36t-36.5 -13h-89l-69 -213q-14 -42 -51 -42q-18 0 -34 12t-16 35q0 5 1 9.5t3 9.5l61 189h-77l-69 -213q-14 -42 -50 -42q-19 0 -34.5 12t-15.5 35q0 5 1 9.5t3 9.5l61 189h-37q-21 0 -35.5 13t-14.5 36t14.5 36.5 t35.5 13.5h68l25 79h-64q-22 0 -36 13.5t-14 36.5q0 21 14 35.5t36 14.5h95z"/>
<glyph glyph-name="dollar" horiz-adv-x="421" unicode="$" d="M162 684q0 23 14.5 36t35.5 13q27 0 38.5 -16.5t11.5 -43.5v-49q14 -5 30.5 -13.5t29.5 -21.5q9 -9 14.5 -19.5t5.5 -25.5q0 -17 -14 -31.5t-32 -14.5q-11 0 -19 4t-15 10q-11 10 -22 16t-25 6q-25 0 -40 -14.5t-15 -40.5q0 -27 20 -40t48 -23q32 -12 58 -27.5t46 -37.5 q18 -20 28.5 -46.5t10.5 -61.5q0 -27 -9 -52.5t-25 -47.5t-38 -38.5t-48 -24.5v-35q0 -23 -14 -36.5t-37 -13.5t-36 13.5t-13 36.5v32q-23 5 -43.5 16t-34.5 25q-24 22 -24 44q0 23 13 37t33 14q14 0 24 -5t20 -14q12 -11 25 -17t31 -6q42 0 59 20.5t17 51.5q0 25 -9.5 40 t-25.5 25q-14 9 -30 15t-33.5 12.5t-34 14.5t-31.5 20q-20 16 -32.5 41.5t-12.5 67.5q0 51 26.5 90t73.5 54v61z"/>
<glyph glyph-name="percent" horiz-adv-x="788" unicode="%" d="M566 329q36 0 67 -13.5t54.5 -36.5t37 -54t13.5 -67q0 -35 -13.5 -66t-37 -54t-54.5 -36.5t-67 -13.5q-35 0 -66 13.5t-54 36.5t-36.5 54t-13.5 66q0 36 13.5 67t36.5 54t54 36.5t66 13.5zM566 236q-32 0 -54.5 -23t-22.5 -55t22.5 -54.5t54.5 -22.5t55 22.5t23 54.5 t-23 55t-55 23zM220 741q36 0 67 -13.5t54.5 -36.5t37 -54.5t13.5 -67.5q0 -35 -13.5 -66t-37 -54t-54.5 -36.5t-67 -13.5q-35 0 -66.5 13.5t-54.5 36.5t-36.5 54t-13.5 66q0 36 13.5 67.5t36.5 54.5t54.5 36.5t66.5 13.5zM220 648q-33 0 -55.5 -22.5t-22.5 -56.5 q0 -32 22.5 -54t55.5 -22t55.5 22t22.5 54q0 34 -22.5 56.5t-55.5 22.5zM566 733q20 0 35.5 -12.5t15.5 -34.5q0 -14 -7 -27l-357 -639q-8 -14 -19.5 -19.5t-22.5 -5.5q-19 0 -35 13.5t-16 35.5q0 5 1 11.5t6 14.5l359 641q7 12 18 17t22 5z"/>
<glyph glyph-name="ampersand" horiz-adv-x="648" unicode="&amp;" d="M269 625q-21 0 -35 -14.5t-14 -36.5q0 -19 6.5 -40t17.5 -39q29 18 52 40t23 46q0 20 -14.5 32t-35.5 12zM396 155q-68 66 -113.5 115.5t-67.5 78.5q-29 -24 -49.5 -57.5t-20.5 -71.5q0 -26 10 -47t27.5 -36.5t40.5 -24t50 -8.5q37 0 68.5 14t54.5 37zM269 737 q31 0 60.5 -10.5t52 -30t36 -48t13.5 -63.5q0 -31 -11 -56.5t-29 -46.5t-40.5 -39t-46.5 -33q19 -24 61 -68t105 -106l33 40q12 15 25 23.5t29 8.5q22 0 41 -16t19 -40q0 -22 -14 -37l-55 -59l64 -66q11 -11 13.5 -20.5t2.5 -17.5q0 -25 -16.5 -41t-40.5 -16q-11 0 -24 5 t-24 17l-51 57q-41 -38 -88.5 -60.5t-110.5 -22.5q-50 0 -94.5 16t-77.5 46t-52 72.5t-19 94.5q0 34 10 65.5t27.5 59.5t40 52t47.5 42q-20 30 -34 64.5t-14 73.5q0 33 11.5 62.5t32.5 51t51 34t67 12.5z"/>
<glyph glyph-name="quotesingle" horiz-adv-x="200" unicode="&apos;" d="M99 773q23 0 36.5 -13.5t13.5 -36.5v-181q0 -23 -13.5 -36t-36.5 -13q-21 0 -35.5 13t-14.5 36v181q0 23 14.5 36.5t35.5 13.5z"/>
<glyph glyph-name="parenleft" horiz-adv-x="364" unicode="(" d="M231 775q15 15 34 15q22 0 35.5 -16t13.5 -36q0 -18 -16 -36q-66 -68 -107 -153.5t-41 -184.5q0 -101 41 -186.5t107 -152.5q16 -18 16 -35q0 -20 -15 -34.5t-36 -14.5q-19 0 -35 13q-41 35 -74.5 81.5t-56.5 99.5t-35.5 111.5t-12.5 117.5q0 57 13 113t37 109 t57.5 100.5t74.5 88.5z"/>
<glyph glyph-name="parenright" horiz-adv-x="364" unicode=")" d="M132 775q41 -41 74.5 -88.5t57.5 -100.5t37 -109t13 -113q0 -59 -12.5 -117.5t-36 -111.5t-56.5 -99.5t-74 -81.5q-16 -13 -35 -13q-21 0 -36 14.5t-15 34.5q0 19 16 35q66 67 106.5 152.5t40.5 186.5q0 99 -40.5 184.5t-106.5 153.5q-16 16 -16 36t13.5 36t35.5 16 q19 0 34 -15z"/>
<glyph glyph-name="asterisk" horiz-adv-x="460" unicode="*" d="M263 745q20 0 35.5 -13.5t15.5 -36.5q0 -6 -1 -11.5t-3 -10.5l-22 -68h73q23 0 36 -13t13 -35q0 -23 -13 -37t-36 -14h-75l24 -70q2 -5 3 -10t1 -9q0 -21 -16.5 -34t-32.5 -13q-37 0 -48 30l-26 76l-55 -40q-23 -15 -41 -15q-19 0 -32.5 15t-13.5 34q0 25 22 42l63 46 l-60 43q-22 15 -22 37q0 20 15.5 36t36.5 16q14 0 30 -11l58 -42l25 74q6 17 19 25.5t27 8.5z"/>
<glyph glyph-name="plus" horiz-adv-x="525" unicode="+" d="M212 438v116q0 23 13.5 36.5t35.5 13.5q23 0 37 -13.5t14 -36.5v-116h114q22 0 36 -14t14 -35q0 -23 -14 -36.5t-36 -13.5h-114v-112q0 -22 -14 -35.5t-37 -13.5q-22 0 -35.5 13.5t-13.5 35.5v112h-113q-21 0 -35.5 13.5t-14.5 36.5q0 21 14.5 35t35.5 14h113z"/>
<glyph glyph-name="comma" horiz-adv-x="244" unicode="," d="M138 177q22 0 39.5 -14.5t17.5 -40.5v-10.5t-2 -9.5l-32 -98q-15 -47 -58 -47q-18 0 -36.5 15t-18.5 41q0 12 4 23l31 101q6 20 21.5 30t33.5 10z"/>
<glyph glyph-name="hyphen" horiz-adv-x="425" unicode="-" d="M349 371q26 0 42 -16t16 -42t-16 -41.5t-42 -15.5h-275q-24 0 -40.5 15.5t-16.5 41.5t16.5 42t40.5 16h275z"/>
<glyph glyph-name="period" d="M163 53q0 -27 -15.5 -42.5t-42.5 -15.5q-24 0 -40.5 15.5t-16.5 42.5v66q0 25 16.5 41t40.5 16q27 0 42.5 -16t15.5 -41v-66z" unicode="."/>
<glyph glyph-name="slash" horiz-adv-x="401" unicode="/" d="M302 733q19 0 34 -12t15 -34v-8t-2 -9l-201 -635q-7 -21 -20 -30.5t-29 -9.5q-19 0 -35 13.5t-16 36.5q0 9 3 17l203 636q6 19 19.5 27t28.5 8z"/>
<glyph glyph-name="zero" horiz-adv-x="822" unicode="0" d="M29 364q0 79 30 148.5t81.5 121.5t121 82t148.5 30t148.5 -30t121.5 -82t82 -121.5t30 -148.5q0 -80 -30 -149t-82 -120.5t-121.5 -81t-148.5 -29.5t-148.5 29.5t-121 81t-81.5 120.5t-30 149zM144 364q0 -55 20.5 -103t56.5 -84t84.5 -57t104.5 -21q55 0 104 21t85.5 57 t57.5 84t21 103t-21 103.5t-57.5 85t-85.5 57.5t-104 21q-56 0 -104.5 -21t-84.5 -57.5t-56.5 -85t-20.5 -103.5z"/>
<glyph glyph-name="one" horiz-adv-x="275" unicode="1" d="M170 733q31 0 44 -17.5t13 -43.5v-620q0 -27 -15.5 -42t-41.5 -15q-25 0 -41.5 14.5t-16.5 43.5v432q-8 -17 -20.5 -30t-29.5 -13q-23 0 -38.5 15.5t-15.5 38.5q0 16 8 29l92 162q11 20 26.5 33t35.5 13z"/>
<glyph glyph-name="two" horiz-adv-x="517" unicode="2" d="M239 737q59 0 104 -20t75.5 -53t46 -76t15.5 -90q0 -39 -11 -73t-30 -66t-44.5 -61.5t-54.5 -59.5l-121 -123h217q26 0 41.5 -15.5t15.5 -41.5q0 -27 -15.5 -42.5t-41.5 -15.5h-347q-29 0 -45.5 16.5t-16.5 39.5q0 25 21 48l211 215q45 46 75.5 90.5t31.5 88.5 q0 21 -8.5 43t-24.5 40t-40 29.5t-55 11.5t-56.5 -12t-48.5 -32q-11 -10 -21 -14t-24 -4q-23 0 -39.5 15.5t-16.5 40.5q0 22 17 43q38 44 87.5 61t102.5 17z"/>
<glyph glyph-name="three" horiz-adv-x="499" unicode="3" d="M44 61q-11 10 -15 20t-4 21q0 27 16 42t41 15q9 0 19 -3.5t23 -14.5q28 -23 48 -29.5t45 -6.5q30 0 54.5 10.5t42.5 28.5t27.5 42.5t9.5 52.5q0 60 -34.5 97.5t-99.5 37.5q-25 0 -41.5 16.5t-16.5 39.5q0 8 3.5 18t11 18.5t18.5 14t25 5.5q31 0 50.5 19.5t19.5 50.5 q0 30 -18.5 48.5t-46.5 18.5q-17 0 -30.5 -6t-21.5 -14q-14 -14 -22 -16t-20 -2q-24 0 -40.5 18.5t-16.5 37.5t13.5 36.5t34.5 31t47 21t51 7.5q40 0 74 -14t58.5 -38t38 -55t13.5 -64q0 -44 -15 -73t-41 -49q29 -12 51.5 -32.5t38 -47.5t23.5 -59t8 -66q0 -52 -19.5 -97 t-53 -78.5t-79 -52.5t-97.5 -19q-59 0 -100 20t-73 49z"/>
<glyph glyph-name="four" horiz-adv-x="462" unicode="4" d="M157 239h135v227zM348 733q29 0 44 -16t15 -41v-438q17 -3 29.5 -16.5t12.5 -37.5q0 -49 -43 -57v-75q0 -27 -15 -42t-42 -15t-42 15t-15 42v72h-227q-23 0 -40 16t-17 42q0 16 10 34l278 487q17 30 52 30z"/>
<glyph glyph-name="five" horiz-adv-x="520" unicode="5" d="M379 728q26 0 42 -15.5t16 -41.5t-16 -42t-42 -16h-178l-16 -143q30 18 88 18q48 0 88 -19.5t68.5 -53.5t44.5 -79t16 -97t-19.5 -97t-53.5 -78.5t-79.5 -53t-96.5 -19.5q-63 0 -110.5 23.5t-90.5 69.5q-16 16 -16 40q0 23 15.5 41.5t42.5 18.5q19 0 39 -17 q33 -28 63.5 -45t62.5 -17q60 0 94.5 36t34.5 98q0 66 -34.5 100t-92.5 34t-89 -27q-19 -17 -41 -17q-27 0 -42.5 14t-15.5 39q0 6 1 12l34 287q3 23 16 35t41 12h226z"/>
<glyph glyph-name="six" horiz-adv-x="557" unicode="6" d="M144 239q0 -28 10.5 -52.5t28.5 -42.5t42.5 -28.5t52.5 -10.5t52 10.5t42 28.5t28.5 42.5t10.5 52.5t-10.5 52.5t-28.5 42.5t-42 28.5t-52 10.5t-52.5 -10.5t-42.5 -28.5t-28.5 -42.5t-10.5 -52.5zM294 708q8 13 20 19t24 6q26 0 43 -17t17 -41q0 -15 -11 -31l-113 -168 q53 0 99 -16t80.5 -47t54 -75t19.5 -99q0 -52 -19.5 -97t-53.5 -78.5t-79.5 -52.5t-96.5 -19q-52 0 -97.5 19t-79 52.5t-53 78.5t-19.5 97q0 39 16 81.5t40 78.5z"/>
<glyph glyph-name="seven" horiz-adv-x="423" unicode="7" d="M349 728q29 0 42.5 -16t13.5 -39q0 -13 -5 -30l-193 -602q-6 -19 -19 -32.5t-38 -13.5q-22 0 -39.5 14t-17.5 40q0 10 3 21l175 543h-199q-26 0 -42 16t-16 42t16 41.5t42 15.5h277z"/>
<glyph glyph-name="eight" horiz-adv-x="557" unicode="8" d="M204 552q0 -31 21 -52.5t53 -21.5q30 0 51.5 21.5t21.5 52.5t-21.5 52.5t-51.5 21.5q-32 0 -53 -21.5t-21 -52.5zM144 239q0 -28 10.5 -52.5t28.5 -42.5t42.5 -28.5t52.5 -10.5q27 0 51.5 10.5t42.5 28.5t28.5 42.5t10.5 52.5t-10.5 52.5t-28.5 42.5t-42.5 28.5 t-51.5 10.5q-28 0 -52.5 -10.5t-42.5 -28.5t-28.5 -42.5t-10.5 -52.5zM29 239q0 36 9.5 68t25 57.5t36 45.5t42.5 32q-17 17 -31.5 42.5t-14.5 70.5q0 37 14 70.5t38.5 58t58 39t71.5 14.5q37 0 70.5 -14.5t58.5 -39t39.5 -58t14.5 -70.5q0 -45 -15 -70.5t-32 -41.5 q50 -24 81.5 -76.5t31.5 -127.5q0 -52 -19.5 -97t-53.5 -78.5t-79.5 -52.5t-96.5 -19q-52 0 -97.5 19t-79 52.5t-53 78.5t-19.5 97z"/>
<glyph glyph-name="nine" horiz-adv-x="557" unicode="9" d="M412 490q0 28 -10.5 52.5t-28.5 42.5t-42.5 28.5t-52.5 10.5t-52 -10.5t-42 -28.5t-28.5 -42.5t-10.5 -52.5t10.5 -52.5t28.5 -42.5t42 -28.5t52 -10.5t52.5 10.5t42.5 28.5t28.5 42.5t10.5 52.5zM262 20q-8 -13 -20 -19t-24 -6q-26 0 -43 17t-17 41q0 15 11 31l113 169 q-53 0 -99 16t-80.5 47t-54 74.5t-19.5 99.5q0 52 19.5 97t53.5 78.5t79.5 52.5t96.5 19q52 0 97.5 -19t79 -52.5t53 -78.5t19.5 -97q0 -39 -16 -81.5t-40 -78.5z"/>
<glyph glyph-name="colon" d="M163 430q0 -26 -15.5 -42t-42.5 -16q-24 0 -40.5 16t-16.5 42v66q0 25 16.5 41t40.5 16q27 0 42.5 -16t15.5 -41v-66zM163 53q0 -27 -15.5 -42.5t-42.5 -15.5q-24 0 -40.5 15.5t-16.5 42.5v66q0 25 16.5 41t40.5 16q27 0 42.5 -16t15.5 -41v-66z" unicode=":"/>
<glyph glyph-name="semicolon" horiz-adv-x="231" unicode=";" d="M117 177q22 0 39.5 -14.5t17.5 -40.5v-10.5t-2 -9.5l-32 -98q-15 -47 -58 -47q-18 0 -36.5 15t-18.5 41q0 12 4 23l31 101q6 20 21.5 30t33.5 10zM175 430q0 -26 -16 -42t-41 -16q-27 0 -42.5 16t-15.5 42v66q0 25 15.5 41t42.5 16q25 0 41 -16t16 -41v-66z"/>
<glyph glyph-name="less" horiz-adv-x="545" unicode="&lt;" d="M448 564q23 0 35 -16t12 -35q0 -15 -7.5 -28t-23.5 -18l-226 -80l225 -80q16 -6 23.5 -19.5t7.5 -26.5q0 -19 -12.5 -35t-35.5 -16q-5 0 -10 1t-10 3l-343 126q-16 6 -25 17t-9 30q0 14 9 27.5t24 19.5l347 127q9 3 19 3z"/>
<glyph glyph-name="equal" horiz-adv-x="525" unicode="=" d="M426 355q22 0 36 -13.5t14 -35.5q0 -23 -14 -36.5t-36 -13.5h-327q-21 0 -35.5 13.5t-14.5 36.5q0 22 14.5 35.5t35.5 13.5h327zM426 523q22 0 36 -14.5t14 -35.5q0 -23 -14 -36.5t-36 -13.5h-327q-21 0 -35.5 13.5t-14.5 36.5q0 21 14.5 35.5t35.5 14.5h327z"/>
<glyph glyph-name="greater" horiz-adv-x="545" unicode="&gt;" d="M96 564q10 0 19 -3l347 -127q15 -6 24 -19.5t9 -27.5q0 -19 -9 -30t-25 -17l-343 -126q-5 -2 -10 -3t-10 -1q-23 0 -35.5 16t-12.5 35q0 13 7.5 26.5t23.5 19.5l225 80l-226 80q-16 5 -23.5 18t-7.5 28q0 19 12 35t35 16z"/>
<glyph glyph-name="question" horiz-adv-x="445" unicode="?" d="M118 286q0 24 4.5 44.5t16 38.5t30 35t46.5 34q22 14 39 25.5t27.5 23.5t16 26.5t5.5 33.5q0 40 -26.5 62.5t-64.5 22.5q-31 0 -51 -8.5t-36 -22.5q-24 -22 -53 -22q-19 0 -33.5 15t-14.5 37q0 28 21 52q25 28 64 45.5t96 17.5q47 0 86 -13t66.5 -38t43 -60t15.5 -80 q0 -54 -23 -98t-85 -83q-23 -14 -37 -25.5t-22.5 -22t-12 -22t-4.5 -25.5q-2 -26 -18.5 -39.5t-37.5 -13.5q-26 0 -42 16.5t-16 43.5zM118 114q0 26 16 41.5t42 15.5q25 0 40.5 -15.5t15.5 -41.5v-61q0 -27 -13.5 -42.5t-42.5 -15.5q-26 0 -42 15.5t-16 42.5v61z"/>
<glyph glyph-name="at" horiz-adv-x="766" unicode="@" d="M330 251q0 -33 23.5 -56t57.5 -23q33 0 56.5 23t23.5 56q0 32 -23.5 55t-56.5 23q-34 0 -57.5 -23t-23.5 -55zM574 179q33 12 53.5 48t20.5 99q0 53 -19.5 91.5t-54 63.5t-81.5 37t-101 12q-60 0 -108.5 -21.5t-83 -59t-53 -89.5t-18.5 -113t22.5 -113t61.5 -90.5 t92.5 -60t116.5 -21.5q61 0 115 19.5t93 59.5q11 11 20 13t17 2q20 0 34.5 -14t14.5 -37q0 -11 -3.5 -18.5t-9.5 -15.5q-26 -30 -59 -51t-70 -34.5t-76 -19.5t-76 -6q-78 0 -149 27.5t-125 78.5t-86 122.5t-32 158.5q0 81 25 151t71.5 121.5t114 80.5t151.5 29 q69 0 131.5 -19t110 -57t75 -95t27.5 -132q0 -54 -16.5 -99t-44.5 -78t-64 -51.5t-75 -18.5q-20 0 -31 4.5t-16 17.5q-17 -8 -37.5 -13.5t-40.5 -5.5q-36 0 -66.5 13t-53.5 36t-36 54t-13 66t13 65.5t36 53.5t53.5 36t66.5 13q21 0 40 -5.5t36 -15.5q13 21 40 21 q20 0 33.5 -12.5t13.5 -34.5v-193z"/>
<glyph glyph-name="A" horiz-adv-x="589" unicode="A" d="M214 293h160l-80 219zM412 191h-236l-56 -157q-8 -21 -21.5 -30t-33.5 -9t-39 14t-19 41q0 11 4 22l228 624q13 37 54 37q19 0 33.5 -9t21.5 -28l228 -622q2 -5 3 -10t1 -11q0 -26 -18 -42t-41 -16q-17 0 -31 8.5t-22 30.5z"/>
<glyph glyph-name="B" horiz-adv-x="504" unicode="B" d="M163 451h104q40 0 62 23t22 59q0 35 -23 57.5t-61 22.5h-104v-162zM163 115h97q25 0 46 9.5t36.5 25t24.5 35.5t9 41t-8 41t-23 35.5t-36.5 24.5t-48.5 9h-97v-221zM267 728q45 0 81.5 -14.5t63 -39t41 -58t14.5 -70.5q0 -110 -82 -153q46 -20 76 -67t30 -107 q0 -41 -15 -80.5t-44.5 -70t-72.5 -49.5t-99 -19h-155q-24 0 -40.5 15.5t-16.5 42.5v613q0 26 16.5 41.5t40.5 15.5h162z"/>
<glyph glyph-name="C" horiz-adv-x="739" unicode="C" d="M410 746q84 0 157.5 -34.5t125.5 -92.5q6 -8 11 -16t5 -22q0 -27 -16 -42.5t-42 -15.5q-19 0 -28 6.5t-14 12.5q-38 42 -88.5 65.5t-110.5 23.5q-56 0 -104.5 -21t-84.5 -57.5t-56.5 -85t-20.5 -103.5t20.5 -103t56.5 -84t84.5 -57t104.5 -21q60 0 109.5 21.5t87.5 63.5 q8 10 18.5 16.5t24.5 6.5q26 0 42.5 -15t16.5 -39q0 -27 -18 -47q-53 -57 -124.5 -89.5t-156.5 -32.5q-79 0 -148.5 29.5t-121 81t-81.5 120.5t-30 149q0 79 30 148.5t81.5 121.5t121 82t148.5 30z"/>
<glyph glyph-name="D" horiz-adv-x="637" unicode="D" d="M163 115h62q55 0 104 18.5t85.5 51.5t57.5 78.5t21 100.5q0 54 -21 100t-57.5 79t-85.5 51.5t-104 18.5h-62v-498zM225 728q79 0 149 -27t122 -75t82 -115t30 -147t-30 -147t-82 -115t-122 -75t-149 -27h-120q-24 0 -40.5 15.5t-16.5 42.5v613q0 26 16.5 41.5t40.5 15.5 h120z"/>
<glyph glyph-name="E" horiz-adv-x="469" unicode="E" d="M391 728q25 0 40.5 -15.5t15.5 -41.5t-15.5 -42t-40.5 -16h-228v-168h219q26 0 42 -16t16 -41q0 -27 -16 -42t-42 -15h-219v-216h232q26 0 41.5 -15.5t15.5 -41.5q0 -27 -15.5 -42.5t-41.5 -15.5h-290q-24 0 -40.5 15.5t-16.5 42.5v613q0 26 16.5 41.5t40.5 15.5h286z "/>
<glyph glyph-name="F" horiz-adv-x="459" unicode="F" d="M391 728q25 0 40.5 -15.5t15.5 -41.5t-15.5 -42t-40.5 -16h-228v-168h219q26 0 42 -16t16 -41q0 -27 -16 -42t-42 -15h-219v-278q0 -27 -15.5 -42.5t-42.5 -15.5q-24 0 -40.5 15.5t-16.5 42.5v618q0 26 15 41.5t43 15.5h285z"/>
<glyph glyph-name="G" horiz-adv-x="822" unicode="G" d="M736 439q25 0 40.5 -13.5t15.5 -42.5q0 -81 -30 -150.5t-82 -121.5t-121.5 -81.5t-148.5 -29.5t-148.5 27t-121 75t-81.5 115t-30 147q0 79 30.5 148.5t82.5 121.5t122 82t148 30q80 0 153.5 -30t124.5 -85q9 -10 13.5 -19t4.5 -22q0 -26 -15 -41.5t-41 -15.5 q-12 0 -24.5 6t-23.5 18q-32 34 -82.5 54t-109.5 20q-55 0 -104 -21t-85.5 -57.5t-57.5 -85t-21 -103.5t20.5 -100.5t56.5 -78.5t84.5 -51.5t104.5 -18.5q50 0 94.5 16t79.5 45t59 68.5t32 86.5h-263q-24 0 -40.5 13.5t-16.5 40.5q0 25 16.5 39.5t40.5 14.5h324z"/>
<glyph glyph-name="H" horiz-adv-x="579" unicode="H" d="M415 445v231q0 26 15.5 41.5t42.5 15.5q26 0 41.5 -15.5t15.5 -41.5v-623q0 -27 -15.5 -42.5t-41.5 -15.5q-27 0 -42.5 15.5t-15.5 42.5v278h-252v-278q0 -27 -15.5 -42.5t-42.5 -15.5q-24 0 -40.5 15.5t-16.5 42.5v623q0 26 16.5 41.5t40.5 15.5q27 0 42.5 -15.5 t15.5 -41.5v-231h252z"/>
<glyph glyph-name="I" d="M105 733q27 0 42.5 -15.5t15.5 -41.5v-623q0 -27 -15.5 -42.5t-42.5 -15.5q-24 0 -40.5 15.5t-16.5 42.5v623q0 26 16.5 41.5t40.5 15.5z" unicode="I"/>
<glyph glyph-name="J" horiz-adv-x="294" unicode="J" d="M246 171q0 -41 -12.5 -73.5t-35 -55.5t-54 -35t-68.5 -12q-34 0 -50 15.5t-16 42.5q0 26 16 41.5t42 15.5q27 0 45 16.5t18 45.5v504q0 26 16 41.5t41 15.5q26 0 42 -15.5t16 -41.5v-505z"/>
<glyph glyph-name="K" horiz-adv-x="478" unicode="K" d="M210 445l144 258q9 17 22.5 23.5t27.5 6.5q23 0 41 -16t18 -41q0 -15 -9 -31l-148 -259l149 -305q8 -18 8 -31q0 -26 -17.5 -40.5t-40.5 -14.5q-15 0 -30 8.5t-23 25.5l-145 302h-44v-278q0 -27 -15.5 -42.5t-42.5 -15.5q-24 0 -40.5 15.5t-16.5 42.5v623q0 26 16.5 41.5 t40.5 15.5q27 0 42.5 -15.5t15.5 -41.5v-231h47z"/>
<glyph glyph-name="L" horiz-adv-x="460" unicode="L" d="M163 115h232q26 0 41.5 -15.5t15.5 -41.5q0 -27 -15.5 -42.5t-41.5 -15.5h-289q-28 0 -43 15.5t-15 42.5v618q0 26 16.5 41.5t40.5 15.5q27 0 42.5 -15.5t15.5 -41.5v-561z"/>
<glyph glyph-name="M" horiz-adv-x="671" unicode="M" d="M388 34q-8 -20 -22.5 -29.5t-31.5 -9.5q-41 0 -54 39l-117 330v-311q0 -27 -15.5 -42.5t-42.5 -15.5q-24 0 -40.5 15.5t-16.5 42.5v623q0 29 17.5 43t38.5 14q14 0 31 -9.5t25 -30.5l174 -484l175 484q8 20 23 30t33 10q23 0 39.5 -14t16.5 -43v-623q0 -27 -15.5 -42.5 t-42.5 -15.5q-25 0 -41 15.5t-16 42.5v312z"/>
<glyph glyph-name="N" horiz-adv-x="565" unicode="N" d="M163 53q0 -27 -15.5 -42.5t-42.5 -15.5q-24 0 -40.5 15.5t-16.5 42.5v620q0 30 18.5 45t40.5 15q15 0 29 -6.5t22 -21.5l244 -436v407q0 26 15.5 41.5t42.5 15.5q25 0 41 -15.5t16 -41.5v-627q0 -26 -17.5 -40t-38.5 -14q-17 0 -32 8.5t-25 26.5l-241 432v-409z"/>
<glyph glyph-name="O" horiz-adv-x="822" unicode="O" d="M29 364q0 79 30 148.5t81.5 121.5t121 82t148.5 30t148.5 -30t121.5 -82t82 -121.5t30 -148.5q0 -80 -30 -149t-82 -120.5t-121.5 -81t-148.5 -29.5t-148.5 29.5t-121 81t-81.5 120.5t-30 149zM144 364q0 -55 20.5 -103t56.5 -84t84.5 -57t104.5 -21q55 0 104 21t85.5 57 t57.5 84t21 103t-21 103.5t-57.5 85t-85.5 57.5t-104 21q-56 0 -104.5 -21t-84.5 -57.5t-56.5 -85t-20.5 -103.5z"/>
<glyph glyph-name="P" horiz-adv-x="518" unicode="P" d="M163 358h85q28 0 53.5 8.5t44 25t29.5 40t11 53.5t-11 53.5t-29.5 40t-44 25.5t-53.5 9h-85v-255zM248 728q52 0 98.5 -17t80.5 -48.5t54 -76.5t20 -101t-20 -100.5t-54 -76t-80.5 -48.5t-98.5 -17h-85v-190q0 -27 -15.5 -42.5t-42.5 -15.5q-24 0 -40.5 15.5t-16.5 42.5 v618q0 26 16.5 41.5t40.5 15.5h143z"/>
<glyph glyph-name="Q" horiz-adv-x="822" unicode="Q" d="M409 631q-55 0 -103 -21t-84 -57.5t-57 -85t-21 -103.5t21 -103t57 -84t84 -57t103 -21q56 0 105 21t85.5 57t57.5 84t21 103t-21 103.5t-57.5 85t-85.5 57.5t-105 21zM409 746q79 0 149 -30t122 -81.5t82 -121.5t30 -149q0 -63 -21 -122t-56 -107l70 -72q11 -11 15 -22 t4 -22q0 -23 -16.5 -40t-39.5 -17q-10 0 -19.5 3t-19.5 13l-76 77q-47 -37 -102.5 -54t-121.5 -17q-78 0 -147 29.5t-121 81t-82 120.5t-30 149q0 79 30 149t82 121.5t121 81.5t147 30z"/>
<glyph glyph-name="R" horiz-adv-x="507" unicode="R" d="M163 391h97q24 0 45.5 9.5t37 25t24.5 35.5t9 42q0 21 -9 41t-24.5 35t-37 24.5t-45.5 9.5h-97v-222zM260 728q50 0 92.5 -19t73 -50.5t48 -72t17.5 -83.5q0 -69 -38.5 -123.5t-111.5 -76.5l123 -220q9 -18 9 -33q0 -24 -17.5 -39.5t-39.5 -15.5q-16 0 -29 7t-23 25 l-139 249h-62v-223q0 -27 -15.5 -42.5t-42.5 -15.5q-24 0 -40.5 15.5t-16.5 42.5v618q0 26 16.5 41.5t40.5 15.5h155z"/>
<glyph glyph-name="S" horiz-adv-x="467" unicode="S" d="M248 744q37 0 78 -17t67 -42q14 -13 18.5 -24.5t4.5 -24.5q0 -26 -14 -42t-38 -16q-16 0 -27 5.5t-22 15.5q-18 17 -35 23.5t-40 6.5q-30 0 -54.5 -23t-24.5 -64q0 -30 16 -47.5t50 -34.5t72.5 -30t64.5 -32q40 -30 61.5 -75t21.5 -97q0 -45 -15.5 -87t-46 -74t-75 -51 t-101.5 -19q-52 0 -93.5 21t-67.5 47q-11 11 -16.5 24t-5.5 24q0 26 15 41t41 15q10 0 21 -4.5t22 -15.5q20 -20 42 -28.5t54 -8.5q53 0 82 32.5t29 83.5q0 32 -13 53.5t-47 38.5q-29 15 -67 28.5t-74 34.5q-35 21 -60 62.5t-25 98.5q0 43 15 80t42 64t64 42.5t81 15.5z"/>
<glyph glyph-name="T" horiz-adv-x="482" unicode="T" d="M416 728q25 0 41 -15.5t16 -41.5t-16 -42t-41 -16h-118v-560q0 -27 -16 -42.5t-42 -15.5q-25 0 -40.5 15.5t-15.5 42.5v560h-119q-26 0 -42 16t-16 42t16 41.5t42 15.5h351z"/>
<glyph glyph-name="U" horiz-adv-x="581" unicode="U" d="M163 244q0 -29 9 -54.5t25.5 -44.5t40 -29.5t53.5 -10.5t53.5 10.5t40 29.5t25 44.5t8.5 54.5v432q0 26 15.5 41.5t42.5 15.5q26 0 41.5 -15.5t15.5 -41.5v-432q0 -53 -16.5 -99.5t-48 -80.5t-76.5 -53.5t-101 -19.5t-101 19.5t-76.5 53.5t-48.5 80.5t-17 99.5v432 q0 26 16.5 41.5t40.5 15.5q27 0 42.5 -15.5t15.5 -41.5v-432z"/>
<glyph glyph-name="V" horiz-adv-x="589" unicode="V" d="M467 694q14 39 55 39q22 0 40 -14t18 -42q0 -12 -3 -22l-228 -622q-14 -38 -55 -38q-17 0 -31.5 9.5t-21.5 28.5l-229 620q-5 12 -5 21q0 27 19.5 43t40.5 16q17 0 30.5 -9t21.5 -30l175 -480z"/>
<glyph glyph-name="W" horiz-adv-x="923" unicode="W" d="M262 238l144 454q6 20 20.5 30.5t33.5 10.5q17 0 33 -9t23 -31l142 -455l143 455q7 21 22.5 30.5t32.5 9.5q23 0 41 -14t18 -41q0 -5 -1 -10t-3 -10l-197 -623q-6 -20 -22.5 -30t-34.5 -10t-33.5 10t-21.5 30l-142 454l-142 -454q-6 -19 -21.5 -29.5t-35.5 -10.5 q-17 0 -32.5 9.5t-22.5 30.5l-196 626q-3 7 -3 17q0 26 19 40.5t39 14.5q16 0 31.5 -9t22.5 -31z"/>
<glyph glyph-name="X" horiz-adv-x="499" unicode="X" d="M85 733q13 0 26.5 -6t21.5 -20l116 -216l119 216q8 14 20 20t25 6q22 0 40 -14.5t18 -40.5q0 -7 -1.5 -14.5t-6.5 -15.5l-151 -266l172 -300q5 -8 6 -15t1 -15q0 -25 -18.5 -41t-40.5 -16q-14 0 -27 7t-22 24l-134 247l-134 -247q-17 -31 -49 -31q-22 0 -40.5 16 t-18.5 41q0 15 8 30l170 297l-150 269q-8 14 -8 28q0 26 17.5 41.5t40.5 15.5z"/>
<glyph glyph-name="Y" horiz-adv-x="454" unicode="Y" d="M62 733q14 0 27 -6t21 -20l115 -216l119 216q8 14 20.5 20t26.5 6q21 0 39.5 -14.5t18.5 -40.5q0 -7 -1.5 -14.5t-6.5 -15.5l-155 -278v-317q0 -27 -16 -42.5t-42 -15.5q-27 0 -43 15.5t-16 42.5v317l-156 278q-4 8 -6 14t-2 16q0 26 18.5 40.5t38.5 14.5z"/>
<glyph glyph-name="Z" horiz-adv-x="496" unicode="Z" d="M421 728q23 0 40 -16t17 -42q0 -20 -13 -43l-291 -512h241q26 0 41 -15.5t15 -41.5q0 -27 -15 -42.5t-41 -15.5h-341q-23 0 -40.5 14.5t-17.5 39.5q0 7 2 15.5t8 18.5l299 525h-239q-26 0 -41.5 16t-15.5 42t15.5 41.5t41.5 15.5h335z"/>
<glyph glyph-name="bracketleft" horiz-adv-x="331" unicode="[" d="M227 827q22 0 36 -13.5t14 -36.5q0 -22 -14 -35.5t-36 -13.5h-78v-717h82q23 0 37 -14t14 -37t-14 -36.5t-37 -13.5h-132q-21 0 -35.5 13.5t-14.5 36.5v817q0 23 14.5 36.5t35.5 13.5h128z"/>
<glyph glyph-name="backslash" horiz-adv-x="401" unicode="\" d="M97 733q15 0 28.5 -8t19.5 -27l203 -636q3 -8 3 -17q0 -23 -16 -36.5t-35 -13.5q-16 0 -29 9.5t-20 30.5l-201 635q-2 5 -2 9v8q0 22 15 34t34 12z"/>
<glyph glyph-name="bracketright" horiz-adv-x="331" unicode="]" d="M231 827q23 0 37 -13.5t14 -36.5v-817q0 -23 -14 -36.5t-37 -13.5h-132q-21 0 -35.5 13.5t-14.5 36.5t14.5 37t35.5 14h83v717h-78q-23 0 -37 13.5t-14 35.5q0 23 14 36.5t37 13.5h127z"/>
<glyph glyph-name="asciicircum" horiz-adv-x="455" unicode="^" d="M148 359q-6 -17 -19 -25.5t-29 -8.5q-19 0 -35 12.5t-16 35.5q0 8 5 23l128 344q12 32 46 32q22 0 31 -8.5t15 -23.5l128 -347q3 -11 3 -19q0 -23 -16 -36t-34 -13q-14 0 -27.5 8t-19.5 25l-80 216z"/>
<glyph glyph-name="underscore" horiz-adv-x="480" unicode="_" d="M427 -11q23 0 36.5 -13.5t13.5 -36.5t-13.5 -36.5t-36.5 -13.5h-375q-21 0 -35 13.5t-14 36.5t14 36.5t35 13.5h375z"/>
<glyph glyph-name="grave" horiz-adv-x="401" unicode="`" d="M64 740q9 0 22 -4l190 -60q17 -5 25 -18t8 -25q0 -18 -11 -32.5t-29 -14.5q-11 0 -23 4l-194 61q-17 5 -24.5 17t-7.5 26q0 21 12 33.5t32 12.5z"/>
<glyph glyph-name="a" horiz-adv-x="657" unicode="a" d="M323 456q-38 0 -70.5 -14t-56.5 -38.5t-38 -57.5t-14 -70t14 -69.5t38 -56.5t56.5 -38t70.5 -14q36 0 67.5 14t54 38t35.5 56.5t13 69.5t-13 70t-35.5 57.5t-54 38.5t-67.5 14zM609 53q0 -27 -15.5 -42.5t-42.5 -15.5q-24 0 -40.5 15.5t-16.5 42.5v3q-14 -14 -32.5 -27.5 t-41 -23.5t-47.5 -16t-50 -6q-64 0 -118 23t-93 62.5t-61 93t-22 114.5t22 114.5t61.5 93.5t93.5 63.5t117 23.5q56 0 99 -19t72 -51q0 26 16.5 41.5t40.5 15.5q27 0 42.5 -15.5t15.5 -41.5v-448z"/>
<glyph glyph-name="b" horiz-adv-x="657" unicode="b" d="M334 456q-36 0 -67 -14t-54 -38.5t-36 -57.5t-13 -70t13 -69.5t36 -56.5t54 -38t67 -14q37 0 70 14t57 38t38 56.5t14 69.5t-14 70t-38 57.5t-57 38.5t-70 14zM164 499q27 33 70 52.5t100 19.5t110.5 -22t94.5 -61.5t65.5 -93.5t24.5 -118q0 -63 -24.5 -117t-65.5 -93 t-94.5 -61t-110.5 -22q-27 0 -52.5 6.5t-48 17t-41.5 24.5t-32 29q-3 -29 -15.5 -47t-47.5 -18q-21 0 -35 14t-14 37v676q0 26 16.5 41.5t41.5 15.5q27 0 42.5 -15.5t15.5 -41.5v-223z"/>
<glyph glyph-name="c" horiz-adv-x="581" unicode="c" d="M323 571q63 0 119.5 -23.5t93.5 -68.5q7 -9 10 -19t3 -18q0 -24 -18 -42t-41 -18q-21 0 -38 17q-26 26 -59 41.5t-70 15.5q-38 0 -70.5 -14t-56.5 -38.5t-38 -57.5t-14 -70t14 -69.5t38 -56.5t56.5 -38t70.5 -14q37 0 70 13.5t57 39.5q10 10 19.5 13.5t20.5 3.5 q23 0 42 -17t19 -41q0 -20 -18 -40q-41 -42 -95.5 -64.5t-114.5 -22.5q-61 0 -114.5 23t-93.5 62.5t-63 93t-23 114.5t23 114.5t63 93.5t93.5 63.5t114.5 23.5z"/>
<glyph glyph-name="d" horiz-adv-x="657" unicode="d" d="M493 722q0 26 15.5 41.5t42.5 15.5q26 0 42 -15.5t16 -41.5v-676q0 -23 -13.5 -37t-34.5 -14q-25 0 -42.5 15t-21.5 50q-13 -15 -32 -29t-42 -24.5t-48.5 -17t-51.5 -6.5q-57 0 -110.5 23t-94 62.5t-65 93t-24.5 114.5t24.5 114.5t65 93.5t94 63.5t110.5 23.5t100 -19.5 t70 -52.5v223zM323 456q-38 0 -70.5 -14t-56.5 -38.5t-38 -57.5t-14 -70t14 -69.5t38 -56.5t56.5 -38t70.5 -14q36 0 67.5 14t54 38t35.5 56.5t13 69.5t-13 70t-35.5 57.5t-54 38.5t-67.5 14z"/>
<glyph glyph-name="e" horiz-adv-x="646" unicode="e" d="M323 456q-29 0 -57 -10t-50.5 -28t-38.5 -42t-22 -52h336q-5 28 -21 52t-39 42t-51 28t-57 10zM323 571q60 0 113.5 -23t93.5 -61.5t63.5 -90t23.5 -108.5q0 -29 -15 -44t-42 -15h-406q5 -28 21 -52t39.5 -41.5t51.5 -27.5t57 -10q37 0 68 13t55 37q10 9 22 14.5t23 5.5 q23 0 38.5 -17t15.5 -40q0 -12 -3 -23t-12 -20q-39 -43 -92 -64t-115 -21q-61 0 -114.5 23t-93.5 62.5t-63 93t-23 114.5t23 114.5t63 93.5t93.5 63.5t114.5 23.5z"/>
<glyph glyph-name="f" horiz-adv-x="290" unicode="f" d="M168 438v-385q0 -27 -15.5 -42.5t-42.5 -15.5q-24 0 -40.5 15.5t-16.5 42.5v385q-23 3 -35.5 18t-12.5 40q0 22 12.5 37.5t35.5 18.5v51q0 46 12.5 79.5t35 55t52.5 31.5t65 10q33 0 50 -14.5t17 -38.5q0 -26 -12.5 -41.5t-35.5 -17.5q-14 -1 -26 -4t-22 -10t-15.5 -19 t-5.5 -32v-49h36q26 0 41.5 -16.5t15.5 -40.5q0 -27 -15.5 -42.5t-41.5 -15.5h-36z"/>
<glyph glyph-name="g" horiz-adv-x="657" unicode="g" d="M323 98q36 0 67.5 14t54 38.5t35.5 57t13 69.5t-13 69.5t-35.5 57t-54 38.5t-67.5 14q-38 0 -70.5 -14t-56.5 -38.5t-38 -57t-14 -69.5t14 -69.5t38 -57t56.5 -38.5t70.5 -14zM323 571q27 0 52.5 -6.5t48 -17.5t41.5 -25t33 -29q2 33 16 49t46 16q21 0 35 -13.5t14 -36.5 v-471q0 -55 -16.5 -107.5t-52.5 -94t-91.5 -66.5t-133.5 -25q-31 0 -46.5 15.5t-15.5 42.5q0 26 15.5 42t42.5 16q52 0 87 15.5t56 41.5t29.5 61.5t8.5 75.5q-26 -34 -68 -52.5t-101 -18.5q-57 0 -110.5 23t-94 63t-65 93.5t-24.5 114.5t24.5 114.5t65 93.5t94 63t110.5 23z "/>
<glyph glyph-name="h" horiz-adv-x="591" unicode="h" d="M163 514q25 26 61 41.5t80 15.5q54 0 98 -19.5t75 -53.5t47.5 -80.5t16.5 -100.5v-264q0 -27 -15.5 -42.5t-41.5 -15.5q-25 0 -41 15.5t-16 42.5v264q0 30 -8.5 55.5t-25 44t-40.5 29.5t-55 11q-30 0 -55 -11t-43 -29.5t-27.5 -44t-9.5 -55.5v-264q0 -27 -15.5 -42.5 t-42.5 -15.5q-24 0 -40.5 15.5t-16.5 42.5v669q0 26 16.5 41.5t40.5 15.5q27 0 42.5 -15.5t15.5 -41.5v-208z"/>
<glyph glyph-name="i" d="M163 53q0 -27 -15.5 -42.5t-42.5 -15.5q-24 0 -40.5 15.5t-16.5 42.5v428q0 25 16.5 41t40.5 16q27 0 42.5 -16t15.5 -41v-428zM163 642q0 -26 -15.5 -41.5t-42.5 -15.5q-24 0 -40.5 15.5t-16.5 41.5v80q0 26 16.5 41.5t40.5 15.5q27 0 42.5 -15.5t15.5 -41.5v-80z" unicode="i"/>
<glyph glyph-name="j" horiz-adv-x="198" unicode="j" d="M35 480q0 27 15.5 42.5t42.5 15.5q24 0 40.5 -15.5t16.5 -42.5v-560q0 -46 -12.5 -79.5t-35 -55t-52.5 -31.5t-65 -10q-33 0 -50 14.5t-17 38.5q0 26 12.5 41.5t35.5 17.5q13 1 25.5 4t22.5 10t15.5 19t5.5 32v559zM150 642q0 -26 -15.5 -41.5t-42.5 -15.5 q-25 0 -41 15.5t-16 41.5v80q0 26 16 41.5t41 15.5q27 0 42.5 -15.5t15.5 -41.5v-80z"/>
<glyph glyph-name="k" horiz-adv-x="427" unicode="k" d="M163 349h43l94 177q9 17 23 24.5t29 7.5q22 0 40.5 -15.5t18.5 -39.5q0 -16 -9 -32l-103 -178l107 -210q7 -15 7 -31q0 -26 -18 -41.5t-40 -15.5q-16 0 -29.5 8t-21.5 26l-102 215h-39v-191q0 -27 -15.5 -42.5t-42.5 -15.5q-24 0 -40.5 15.5t-16.5 42.5v669 q0 26 16.5 41.5t40.5 15.5q27 0 42.5 -15.5t15.5 -41.5v-373z"/>
<glyph glyph-name="l" d="M163 53q0 -27 -15.5 -42.5t-42.5 -15.5q-24 0 -40.5 15.5t-16.5 42.5v669q0 26 16.5 41.5t40.5 15.5q27 0 42.5 -15.5t15.5 -41.5v-669z" unicode="l"/>
<glyph glyph-name="m" horiz-adv-x="899" unicode="m" d="M163 52q0 -27 -15.5 -42t-42.5 -15q-24 0 -40.5 15t-16.5 42v456q0 23 13 36.5t35 13.5q49 0 57 -46q23 31 57.5 45t70.5 14q24 0 49 -5t47.5 -15t42 -26.5t32.5 -38.5q29 45 77 65t96 20q43 0 83.5 -17.5t71.5 -48t50 -73t19 -92.5v-288q0 -27 -15.5 -42t-41.5 -15 q-25 0 -41 15t-16 42v288q0 25 -9 46t-24.5 37t-35.5 25t-41 9q-22 0 -43 -9t-38 -25t-27.5 -37t-10.5 -46v-288q0 -27 -15.5 -42t-42.5 -15q-24 0 -40 15t-16 42v288q0 25 -9.5 46t-25 37t-35.5 25t-41 9t-42.5 -9t-38 -25t-27 -37t-10.5 -46v-288z"/>
<glyph glyph-name="n" horiz-adv-x="591" unicode="n" d="M97 558q49 0 58 -50q26 29 64 46t85 17q54 0 98 -19.5t75 -53.5t47.5 -80.5t16.5 -100.5v-265q0 -27 -15.5 -42t-41.5 -15q-25 0 -41 15t-16 42v265q0 29 -9 54.5t-25.5 44.5t-40.5 30t-54 11t-55 -11t-43 -29.5t-27.5 -44t-9.5 -55.5v-265q0 -27 -15.5 -42t-42.5 -15 q-24 0 -40.5 15t-16.5 42v456q0 23 14.5 36.5t34.5 13.5z"/>
<glyph glyph-name="o" horiz-adv-x="646" unicode="o" d="M323 571q61 0 114.5 -23.5t93.5 -63.5t63 -93.5t23 -114.5t-23 -114.5t-63 -93t-93.5 -62.5t-114.5 -23t-114.5 23t-93.5 62.5t-63 93t-23 114.5t23 114.5t63 93.5t93.5 63.5t114.5 23.5zM323 456q-38 0 -70.5 -14t-56.5 -38.5t-38 -57.5t-14 -70t14 -69.5t38 -56.5 t56.5 -38t70.5 -14q37 0 69.5 14t57 38t38.5 56.5t14 69.5t-14 70t-38.5 57.5t-57 38.5t-69.5 14z"/>
<glyph glyph-name="p" horiz-adv-x="657" unicode="p" d="M164 -199q0 -26 -15.5 -41.5t-42.5 -15.5q-25 0 -41.5 15.5t-16.5 41.5v707q0 23 14.5 36.5t34.5 13.5q31 0 43.5 -16.5t19.5 -48.5q13 15 32 29t41.5 25t48 17.5t52.5 6.5q57 0 110.5 -23t94.5 -63t65.5 -93.5t24.5 -114.5t-24.5 -114.5t-65.5 -93.5t-94.5 -63 t-110.5 -23t-100 19.5t-70 51.5v-253zM334 98q37 0 70 14t57 38.5t38 57t14 69.5t-14 69.5t-38 57t-57 38.5t-70 14q-36 0 -67 -14t-54 -38.5t-36 -57t-13 -69.5t13 -69.5t36 -57t54 -38.5t67 -14z"/>
<glyph glyph-name="q" horiz-adv-x="657" unicode="q" d="M493 54q-27 -32 -70 -51.5t-100 -19.5t-110.5 23t-94.5 63t-65.5 93.5t-24.5 114.5t24.5 114.5t65.5 93.5t94.5 63t110.5 23q27 0 52.5 -6.5t48 -17.5t41.5 -25t32 -29q7 32 19.5 48.5t43.5 16.5q20 0 34.5 -13.5t14.5 -36.5v-707q0 -26 -16.5 -41.5t-41.5 -15.5 q-27 0 -42.5 15.5t-15.5 41.5v253zM323 98q36 0 67 14t54 38.5t36 57t13 69.5t-13 69.5t-36 57t-54 38.5t-67 14q-38 0 -70.5 -14t-56.5 -38.5t-38 -57t-14 -69.5t14 -69.5t38 -57t56.5 -38.5t70.5 -14z"/>
<glyph glyph-name="r" horiz-adv-x="361" unicode="r" d="M105 558q25 0 37 -15.5t14 -42.5q29 32 63 46t79 14q25 0 41.5 -13.5t16.5 -43.5q0 -24 -12 -38.5t-38 -16.5q-43 -3 -71 -13t-44 -27.5t-22 -42t-6 -54.5v-263q0 -22 -15.5 -37.5t-41.5 -15.5t-42 15.5t-16 38.5v446q0 26 12.5 44.5t44.5 18.5z"/>
<glyph glyph-name="s" horiz-adv-x="376" unicode="s" d="M203 347q38 -15 64.5 -30t44.5 -32q23 -23 33 -52.5t10 -72.5q0 -32 -12 -62t-34.5 -53.5t-54 -38t-71.5 -14.5q-35 0 -68.5 11.5t-56.5 29.5q-14 11 -23.5 25t-9.5 32q0 20 14.5 37.5t35.5 17.5q18 0 38 -12q15 -9 32 -15t38 -6q30 0 44 15.5t14 38.5q0 22 -7.5 33.5 t-18.5 19.5q-23 17 -50.5 26t-53.5 24q-35 20 -55 51t-20 80q0 36 12 65.5t33.5 50.5t50.5 32.5t64 11.5t69 -13t52 -39q12 -17 12 -43q0 -21 -12.5 -36.5t-38.5 -15.5q-10 0 -21.5 4.5t-17.5 12.5q-17 22 -49 22q-16 0 -28.5 -12t-12.5 -35q0 -21 9.5 -32.5t44.5 -25.5z "/>
<glyph glyph-name="t" horiz-adv-x="298" unicode="t" d="M168 553h36q26 0 41.5 -15.5t15.5 -42.5q0 -24 -15.5 -40.5t-41.5 -16.5h-36v-266q0 -20 5.5 -32t15.5 -19t22 -10t26 -4q23 -2 35.5 -17.5t12.5 -41.5q0 -24 -17 -38.5t-50 -14.5q-35 0 -65 10t-52.5 31.5t-35 55t-12.5 79.5v267q-23 3 -35.5 19t-12.5 38 q0 24 12.5 39.5t35.5 17.5v169q0 27 16.5 42.5t40.5 15.5q27 0 42.5 -15.5t15.5 -42.5v-168z"/>
<glyph glyph-name="u" horiz-adv-x="571" unicode="u" d="M473 -5q-49 0 -58 50q-20 -29 -54 -46t-81 -17q-54 0 -97 18t-73 50t-46 77t-16 99v275q0 27 15.5 42t41.5 15q25 0 41 -15t16 -42v-275q0 -59 31.5 -94.5t92.5 -35.5t91 35t30 95v275q0 27 15.5 42t42.5 15q24 0 40.5 -15t16.5 -42v-456q0 -23 -14.5 -36.5t-34.5 -13.5z "/>
<glyph glyph-name="v" horiz-adv-x="458" unicode="v" d="M338 519q13 39 54 39q22 0 40 -16t18 -42q0 -12 -4 -24l-163 -441q-7 -19 -21.5 -29.5t-31.5 -10.5t-31.5 10t-22.5 30l-163 439q-6 13 -6 26q0 26 18.5 42t40.5 16t34 -9.5t20 -29.5l110 -305z"/>
<glyph glyph-name="w" horiz-adv-x="697" unicode="w" d="M349 558q20 0 34.5 -10t20.5 -30l86 -283l88 282q6 20 20.5 30.5t34.5 10.5q22 0 39.5 -15t17.5 -42q0 -11 -4 -23l-141 -444q-6 -20 -21.5 -29.5t-33.5 -9.5t-33.5 9.5t-21.5 29.5l-86 280l-87 -280q-6 -20 -21.5 -29.5t-34.5 -9.5t-34 9.5t-21 29.5l-140 443 q-2 6 -3 12.5t-1 11.5q0 26 18 41.5t40 15.5q20 0 34 -10.5t20 -30.5l87 -282l87 283q6 20 21 30t35 10z"/>
<glyph glyph-name="x" horiz-adv-x="441" unicode="x" d="M357 558q23 0 39.5 -16.5t16.5 -40.5q0 -9 -2.5 -19t-9.5 -20l-115 -171l134 -201q7 -10 9.5 -19t2.5 -20q0 -24 -16.5 -40t-39.5 -16q-19 0 -30 7t-22 24l-105 169l-103 -169q-11 -17 -24.5 -24t-28.5 -7q-22 0 -39 16t-17 40q0 18 11 36l137 205l-116 170 q-7 10 -9.5 20t-2.5 19q0 24 16.5 40.5t39.5 16.5q12 0 25.5 -6.5t23.5 -21.5l88 -142l88 141q10 15 23 22t26 7z"/>
<glyph glyph-name="y" horiz-adv-x="458" unicode="y" d="M338 519q7 20 21.5 29.5t32.5 9.5q24 0 41 -16t17 -42q0 -13 -4 -24l-256 -692q-8 -21 -22.5 -30.5t-31.5 -9.5q-22 0 -40 16t-18 41q0 10 4 21l86 225l-156 428q-2 7 -3.5 12.5t-1.5 12.5q0 26 17.5 42t41.5 16q18 0 32.5 -9.5t21.5 -29.5l110 -313z"/>
<glyph glyph-name="z" horiz-adv-x="402" unicode="z" d="M311 553q29 0 46 -17.5t17 -43.5q0 -11 -3.5 -21t-8.5 -19l-191 -337h145q26 0 42 -15.5t16 -41.5q0 -27 -16 -42.5t-42 -15.5h-237q-31 0 -47 16t-16 41q0 20 13 41l192 339h-138q-27 0 -42.5 16t-15.5 42q0 25 15.5 41.5t42.5 16.5h228z"/>
<glyph glyph-name="braceleft" horiz-adv-x="310" unicode="{" d="M211 -62q-35 0 -55.5 19.5t-31 52.5t-14 76t-3.5 90q0 63 -3.5 97.5t-17.5 48.5q-5 4 -11.5 8.5t-12 9.5t-9.5 11.5t-4 16.5t4 16.5t10 12t12 9.5t10 8q14 14 18 46.5t4 99.5q0 46 3.5 89t14 76t31 52.5t55.5 19.5q23 0 36 -13.5t13 -36.5q0 -21 -10.5 -30.5t-31.5 -14.5 q-11 -2 -14 -61t-3 -177q0 -29 -9 -53t-37 -43q28 -19 37 -42.5t9 -53.5q0 -117 3 -177t14 -62q21 -5 31.5 -13.5t10.5 -31.5t-13 -36.5t-36 -13.5z"/>
<glyph glyph-name="bar" horiz-adv-x="259" unicode="|" d="M179 -64q0 -22 -13.5 -35.5t-36.5 -13.5q-22 0 -35.5 13.5t-13.5 35.5v832q0 23 13.5 36t35.5 13q23 0 36.5 -13t13.5 -36v-832z"/>
<glyph glyph-name="braceright" horiz-adv-x="310" unicode="}" d="M99 -62q-23 0 -36.5 13.5t-13.5 36.5t11 31.5t31 13.5q11 2 14.5 62t3.5 177q0 30 9 53.5t37 42.5q-28 19 -37 43t-9 53q0 118 -3.5 177t-14.5 61q-20 5 -31 14.5t-11 30.5q0 23 13.5 36.5t36.5 13.5q34 0 55 -19.5t31.5 -52.5t14 -76t3.5 -89q0 -67 3.5 -100t17.5 -46 q9 -8 22.5 -17.5t13.5 -28.5q0 -10 -4 -16.5t-9.5 -11.5t-12 -9.5t-10.5 -8.5q-14 -14 -17.5 -48.5t-3.5 -97.5q0 -47 -3.5 -90t-14 -76t-31.5 -52.5t-55 -19.5z"/>
<glyph glyph-name="asciitilde" horiz-adv-x="467" unicode="~" d="M249 438q21 -15 30.5 -20.5t22.5 -5.5q10 0 17 7t15 22q5 10 13.5 16t22.5 6q20 0 33.5 -11.5t13.5 -31.5q0 -14 -3 -23t-11 -23q-14 -25 -39.5 -43.5t-61.5 -18.5q-28 0 -48 10t-37 22q-22 15 -31 20t-22 5q-10 0 -17 -7t-15 -22q-5 -10 -13.5 -16t-22.5 -6 q-20 0 -33.5 11.5t-13.5 31.5q0 14 3 23t11 23q14 25 39.5 43.5t61.5 18.5q28 0 48 -9.5t37 -21.5z"/>
<glyph glyph-name="dieresis" horiz-adv-x="316" unicode="¨" d="M188 689q0 21 13 33.5t33 12.5q21 0 33.5 -12.5t12.5 -33.5v-35q0 -20 -12.5 -32t-33.5 -12q-20 0 -33 12t-13 32v35zM34 689q0 21 13 33.5t33 12.5t32.5 -12.5t12.5 -33.5v-35q0 -20 -12.5 -32t-32.5 -12t-33 12t-13 32v35z"/>
<glyph glyph-name="guillemotleft" horiz-adv-x="417" unicode="«" d="M17 283q-1 13 3 23t9 20l101 194q15 29 46 29q20 0 36 -14t15 -34q0 -14 -8 -28l-105 -190l106 -206q8 -16 8 -29q0 -21 -16 -34t-34 -13q-18 1 -28 7t-18 22l-105 214q-4 8 -7 18t-3 21zM186 283q0 13 4 23l8 20l101 194q15 29 46 29q19 0 35 -14t16 -34q0 -14 -8 -28 l-105 -190l106 -206q8 -16 8 -29q1 -21 -15 -34t-35 -13q-18 1 -28 7t-18 22l-105 214q-4 8 -7 18t-3 21z"/>
<glyph glyph-name="macron" horiz-adv-x="433" unicode="¯" d="M359 723q23 0 36.5 -13.5t13.5 -36.5t-13.5 -36.5t-36.5 -13.5h-282q-22 0 -35.5 13.5t-13.5 36.5t13.5 36.5t35.5 13.5h282z"/>
<glyph glyph-name="degree" horiz-adv-x="455" unicode="°" d="M227 738q37 0 69.5 -14t56.5 -38.5t38 -57t14 -68.5q0 -37 -14 -69.5t-38 -56.5t-56.5 -37.5t-69.5 -13.5t-69.5 13.5t-56.5 37.5t-38 56.5t-14 69.5q0 36 14 68.5t38 57t56.5 38.5t69.5 14zM144 560q0 -35 24 -59t59 -24t59 24t24 59t-24 58.5t-59 23.5t-59 -23.5 t-24 -58.5z"/>
<glyph glyph-name="acute" horiz-adv-x="401" unicode="´" d="M325 740q20 0 32 -12.5t12 -33.5q0 -14 -7.5 -26t-24.5 -17l-194 -61q-12 -4 -23 -4q-18 0 -29 14.5t-11 32.5q0 12 8 25t25 18l190 60q13 4 22 4z"/>
<glyph glyph-name="periodcentered" d="M163 357q0 -27 -15.5 -42t-42.5 -15q-24 0 -40.5 15t-16.5 42v67q0 25 16.5 41t40.5 16q27 0 42.5 -16t15.5 -41v-67z" unicode="·"/>
<glyph glyph-name="cedilla" horiz-adv-x="232" unicode="¸" d="M132 -43q19 0 34.5 -12t15.5 -35v-9t-2 -9l-33 -107q-12 -41 -51 -41q-17 0 -32 12.5t-15 35.5q0 10 3 21l33 110q5 17 18 25.5t29 8.5z"/>
<glyph glyph-name="ordmasculine" horiz-adv-x="455" unicode="º" d="M227 658q-36 0 -60.5 -24.5t-24.5 -60.5q0 -35 24.5 -60t60.5 -25t60 25t24 60q0 36 -24 60.5t-60 24.5zM227 752q37 0 69.5 -14t56.5 -38.5t38 -57t14 -69.5t-14 -69.5t-38 -56.5t-56.5 -37.5t-69.5 -13.5t-69.5 13.5t-56.5 37.5t-38 56.5t-14 69.5t14 69.5t38 57 t56.5 38.5t69.5 14z"/>
<glyph glyph-name="guillemotright" horiz-adv-x="417" unicode="»" d="M230 283q0 -11 -3 -21t-7 -18l-105 -214q-8 -16 -18 -22t-28 -7q-19 0 -35 13t-15 34q0 13 8 29l106 206l-105 190q-8 14 -8 28q0 20 16 34t35 14q31 0 46 -29l101 -194l8 -20t4 -23zM399 283q0 -11 -3 -21t-7 -18l-105 -214q-8 -16 -18 -22t-28 -7q-18 0 -34 13t-16 34 q0 13 8 29l106 206l-105 190q-8 14 -8 28q-1 20 15 34t36 14q31 0 46 -29l101 -194q5 -10 9 -20t3 -23z"/>
<glyph glyph-name="Agrave" horiz-adv-x="589" unicode="À" d="M167 934q9 0 22 -4l190 -60q17 -5 25 -18t8 -25q0 -19 -11 -33t-29 -14q-11 0 -23 4l-194 61q-17 5 -25 17t-7 26q0 22 12 34t32 12zM214 293h160l-80 219zM412 191h-236l-56 -157q-8 -21 -22 -30t-33 -9q-20 0 -39 14t-19 41q0 11 4 22l228 624q13 37 54 37q19 0 33 -9 t22 -28l228 -622q2 -5 3 -10t1 -11q0 -26 -18 -42t-41 -16q-17 1 -31 9t-22 30z"/>
<glyph glyph-name="Acircumflex" horiz-adv-x="589" unicode="Â" d="M214 293h160l-80 219zM412 191h-236l-56 -157q-8 -21 -22 -30t-33 -9q-20 0 -39 14t-19 41q0 11 4 22l228 624q13 37 54 37q19 0 33 -9t22 -28l228 -622q2 -5 3 -10t1 -11q0 -26 -18 -42t-41 -16q-17 1 -31 9t-22 30zM293 824l-42 -41q-7 -7 -15 -11t-18 -4q-20 0 -32 12 t-12 28q0 12 2 20t12 18l71 73q6 6 14 10t20 4t20 -4t14 -10l71 -73q10 -10 12 -18t2 -20q0 -16 -12 -28t-32 -12q-10 0 -18 4t-15 11z"/>
<glyph glyph-name="Ccedilla" horiz-adv-x="739" unicode="Ç" d="M388 -43q18 0 34 -12t16 -35v-9t-2 -9l-33 -107q-12 -41 -51 -41q-17 0 -32 12t-15 36q0 10 3 21l33 110q5 17 18 25t29 9zM410 746q84 0 158 -34t125 -93q6 -8 11 -16t5 -22q0 -27 -16 -43t-42 -15q-19 1 -28 7t-14 12q-39 42 -89 66t-110 23q-56 0 -104 -21 q-48 -22 -85 -58t-57 -84t-20 -104q0 -55 20 -103t57 -84t85 -57t104 -21q60 -1 110 21t87 64q9 10 19 16t24 7q26 0 42 -15t17 -39q0 -27 -18 -47q-53 -58 -125 -90t-156 -32q-78 0 -148 30t-122 80q-52 52 -81 121q-30 69 -30 149q0 78 30 148q29 70 81 122t122 82t148 30 z"/>
<glyph glyph-name="Egrave" horiz-adv-x="469" unicode="È" d="M123 934q9 0 22 -4l190 -60q17 -5 25 -18t8 -25q0 -19 -11 -33t-29 -14q-11 0 -23 4l-194 61q-17 5 -25 17t-7 26q0 22 12 34t32 12zM391 728q25 0 41 -16t15 -41q1 -26 -15 -42t-41 -16h-228v-168h219q26 0 42 -16t16 -41q0 -27 -16 -42t-42 -15h-219v-216h232 q25 1 41 -15t16 -42t-16 -42t-41 -16h-290q-25 0 -41 16t-16 42v613q0 25 16 41t41 16h286z"/>
<glyph glyph-name="Eacute" horiz-adv-x="469" unicode="É" d="M371 934q20 0 32 -12t12 -34q1 -14 -7 -26t-25 -17l-194 -61q-12 -4 -23 -4q-18 0 -29 14t-11 33q0 12 8 25t25 18l190 60q13 4 22 4zM391 728q25 0 41 -16t15 -41q1 -26 -15 -42t-41 -16h-228v-168h219q26 0 42 -16t16 -41q0 -27 -16 -42t-42 -15h-219v-216h232 q25 1 41 -15t16 -42t-16 -42t-41 -16h-290q-25 0 -41 16t-16 42v613q0 25 16 41t41 16h286z"/>
<glyph glyph-name="Ecircumflex" horiz-adv-x="469" unicode="Ê" d="M391 728q25 0 41 -16t15 -41q1 -26 -15 -42t-41 -16h-228v-168h219q26 0 42 -16t16 -41q0 -27 -16 -42t-42 -15h-219v-216h232q25 1 41 -15t16 -42t-16 -42t-41 -16h-290q-25 0 -41 16t-16 42v613q0 25 16 41t41 16h286zM250 824l-42 -41q-6 -7 -14 -11t-19 -4 q-20 0 -32 12t-12 28q1 12 3 20t11 18l71 73q6 6 14 10t20 4t20 -4t14 -10l71 -73q9 -10 11 -18t3 -20q0 -16 -12 -28t-32 -12q-11 0 -19 4t-14 11z"/>
<glyph glyph-name="Edieresis" horiz-adv-x="469" unicode="Ë" d="M279 883q0 21 13 33t33 13q21 -1 33 -13t13 -33v-35q-1 -20 -13 -32t-33 -12q-20 0 -33 12t-13 32v35zM125 883q0 21 13 33t33 13q21 -1 33 -13t12 -33v-35q0 -20 -12 -32t-33 -12q-20 0 -33 12t-13 32v35zM391 728q25 0 41 -16t15 -41q1 -26 -15 -42t-41 -16h-228v-168 h219q26 0 42 -16t16 -41q0 -27 -16 -42t-42 -15h-219v-216h232q25 1 41 -15t16 -42t-16 -42t-41 -16h-290q-25 0 -41 16t-16 42v613q0 25 16 41t41 16h286z"/>
<glyph glyph-name="Icircumflex" d="M105 733q27 1 43 -15t15 -42v-623q1 -27 -15 -43t-43 -15q-25 -1 -41 15t-16 43v623q0 26 16 42t41 15zM106 824l-42 -41q-6 -7 -14 -11t-19 -4q-20 0 -32 12t-12 28q1 12 3 20t11 18l71 73q6 6 14 10t20 4t20 -4t14 -10l71 -73q9 -10 11 -18t3 -20q0 -16 -12 -28 t-32 -12q-11 0 -19 4t-14 11z" unicode="Î"/>
<glyph glyph-name="Idieresis" d="M137 883q0 21 13 33t33 13q21 -1 33 -13t13 -33v-35q-1 -20 -13 -32t-33 -12q-20 0 -33 12t-13 32v35zM-17 883q0 21 13 33t33 13q21 -1 33 -13t12 -33v-35q0 -20 -12 -32t-33 -12q-20 0 -33 12t-13 32v35zM105 733q27 1 43 -15t15 -42v-623q1 -27 -15 -43t-43 -15 q-25 -1 -41 15t-16 43v623q0 26 16 42t41 15z" unicode="Ï"/>
<glyph glyph-name="Ocircumflex" horiz-adv-x="822" unicode="Ô" d="M29 364q0 78 30 148q29 70 81 122t122 82t148 30t148 -30t122 -82t82 -122t30 -148q0 -80 -30 -149t-82 -121t-122 -80q-70 -30 -148 -30t-148 30t-122 80q-52 52 -81 121q-30 69 -30 149zM144 364q0 -55 20 -103t57 -84t85 -57t104 -21q55 0 104 21q50 21 86 57t57 84 t21 103q0 56 -21 104t-57 84t-86 58q-49 21 -104 21q-56 0 -104 -21q-48 -22 -85 -58t-57 -84t-20 -104zM408 824l-42 -41q-6 -7 -14 -11t-19 -4q-20 0 -32 12t-12 28q1 12 3 20t11 18l71 73q6 6 14 10t20 4t20 -4t14 -10l71 -73q9 -10 11 -18t3 -20q0 -16 -12 -28t-32 -12 q-11 0 -19 4t-14 11z"/>
<glyph glyph-name="Ugrave" horiz-adv-x="581" unicode="Ù" d="M166 934q9 0 22 -4l190 -60q17 -5 25 -18t8 -25q0 -19 -11 -33t-29 -14q-11 0 -23 4l-194 61q-16 5 -24 17t-8 26q0 22 12 34t32 12zM163 244q0 -28 9 -54q10 -26 26 -45t40 -29t53 -11q29 1 53 11t40 29t26 45q8 26 8 54v432q0 26 16 42t42 15q26 1 42 -15t15 -42v-432 q-1 -54 -17 -100t-48 -80t-76 -54q-45 -20 -101 -19q-56 -1 -101 19q-44 20 -76 54t-49 80t-17 100v432q0 26 16 42t41 15q27 1 43 -15t15 -42v-432z"/>
<glyph glyph-name="Ucircumflex" horiz-adv-x="581" unicode="Û" d="M163 244q0 -28 9 -54q10 -26 26 -45t40 -29t53 -11q29 1 53 11t40 29t26 45q8 26 8 54v432q0 26 16 42t42 15q26 1 42 -15t15 -42v-432q-1 -54 -17 -100t-48 -80t-76 -54q-45 -20 -101 -19q-56 -1 -101 19q-44 20 -76 54t-49 80t-17 100v432q0 26 16 42t41 15 q27 1 43 -15t15 -42v-432zM291 824l-42 -41q-7 -7 -15 -11t-18 -4q-20 0 -32 12t-12 28q0 12 2 20t12 18l71 73q6 6 14 10t20 4t20 -4t14 -10l71 -73q10 -10 12 -18t2 -20q0 -16 -12 -28t-32 -12q-10 0 -18 4t-15 11z"/>
<glyph glyph-name="Udieresis" horiz-adv-x="581" unicode="Ü" d="M321 883q0 21 13 33t33 13q21 -1 33 -13t13 -33v-35q-1 -20 -13 -32t-33 -12q-20 0 -33 12t-13 32v35zM167 883q0 21 13 33t33 13q21 -1 33 -13t12 -33v-35q0 -20 -12 -32t-33 -12q-20 0 -33 12t-13 32v35zM163 244q0 -28 9 -54q10 -26 26 -45t40 -29t53 -11q29 1 53 11 t40 29t26 45q8 26 8 54v432q0 26 16 42t42 15q26 1 42 -15t15 -42v-432q-1 -54 -17 -100t-48 -80t-76 -54q-45 -20 -101 -19q-56 -1 -101 19q-44 20 -76 54t-49 80t-17 100v432q0 26 16 42t41 15q27 1 43 -15t15 -42v-432z"/>
<glyph glyph-name="agrave" horiz-adv-x="657" unicode="à" d="M196 758q9 0 22 -4l190 -60q17 -5 25 -18t8 -25q0 -19 -11 -33t-29 -14q-11 0 -23 4l-194 61q-16 5 -24 17t-8 26q0 22 12 34t32 12zM323 456q-39 0 -71 -14t-56 -38t-38 -58q-14 -33 -14 -70q0 -38 14 -70t38 -56t56 -38t71 -14q35 0 67 14t54 38t36 56q13 32 13 70 q0 37 -13 70q-14 34 -36 58t-54 38t-67 14zM609 53q1 -27 -15 -43t-43 -15q-25 -1 -41 15t-16 43v3q-14 -14 -32 -28t-42 -23q-22 -10 -47 -16t-50 -6q-64 0 -118 23q-54 22 -93 62t-61 94t-22 114t22 114q21 54 61 94t94 64t117 23q56 0 99 -19t72 -51q0 25 16 41t41 16 q27 0 43 -16t15 -41v-448z"/>
<glyph glyph-name="acircumflex" horiz-adv-x="657" unicode="â" d="M323 456q-39 0 -71 -14t-56 -38t-38 -58q-14 -33 -14 -70q0 -38 14 -70t38 -56t56 -38t71 -14q35 0 67 14t54 38t36 56q13 32 13 70q0 37 -13 70q-14 34 -36 58t-54 38t-67 14zM609 53q1 -27 -15 -43t-43 -15q-25 -1 -41 15t-16 43v3q-14 -14 -32 -28t-42 -23 q-22 -10 -47 -16t-50 -6q-64 0 -118 23q-54 22 -93 62t-61 94t-22 114t22 114q21 54 61 94t94 64t117 23q56 0 99 -19t72 -51q0 25 16 41t41 16q27 0 43 -16t15 -41v-448zM326 648l-42 -41q-6 -7 -14 -11t-19 -4q-20 0 -32 12t-12 28q1 12 3 20t11 18l71 73q6 6 14 10t20 4 t20 -4t14 -10l71 -73q9 -10 11 -18t3 -20q0 -16 -12 -28t-32 -12q-11 0 -19 4t-14 11z"/>
<glyph glyph-name="ccedilla" horiz-adv-x="581" unicode="ç" d="M302 -43q18 0 34 -12t16 -35v-9t-2 -9l-33 -107q-12 -41 -51 -41q-17 0 -32 12t-15 36q0 10 3 21l33 110q5 17 18 25t29 9zM323 571q63 1 119 -23t94 -69q7 -9 10 -19t3 -18q0 -24 -18 -42t-41 -18q-21 0 -38 17q-26 25 -59 41t-70 16q-39 0 -71 -14t-56 -38t-38 -58 q-14 -33 -14 -70q0 -38 14 -70t38 -56t56 -38t71 -14q37 0 70 14t57 39q10 9 20 13t20 4q23 0 42 -17t19 -41q0 -20 -18 -40q-41 -42 -95 -64t-115 -23q-61 0 -115 23q-54 22 -93 62q-40 40 -63 94t-23 114t23 114t63 94q39 40 93 64t115 23z"/>
<glyph glyph-name="egrave" horiz-adv-x="646" unicode="è" d="M189 758q9 0 22 -4l190 -60q17 -5 25 -18t8 -25q0 -19 -11 -33t-29 -14q-11 0 -23 4l-194 61q-17 5 -25 17t-7 26q0 22 12 34t32 12zM323 456q-29 0 -57 -10t-50 -28t-39 -42q-16 -24 -22 -52h336q-5 28 -21 52t-39 42t-51 28t-57 10zM323 571q59 0 113 -23 q54 -24 94 -62t64 -90t23 -108q0 -29 -15 -44t-42 -15h-406q5 -28 21 -52q15 -23 39 -41t52 -28t57 -10q37 0 68 13t55 37q10 8 22 14t23 6q23 0 39 -17t15 -40q0 -12 -3 -23t-12 -20q-39 -43 -92 -64t-115 -21q-61 0 -115 23q-54 22 -93 62q-40 40 -63 94t-23 114t23 114 t63 94q39 40 93 64t115 23z"/>
<glyph glyph-name="eacute" horiz-adv-x="646" unicode="é" d="M443 758q20 0 32 -12t12 -34q1 -14 -7 -26t-25 -17l-194 -61q-12 -4 -23 -4q-18 0 -29 14t-11 33q0 12 8 25t25 18l190 60q13 4 22 4zM323 456q-29 0 -57 -10t-50 -28t-39 -42q-16 -24 -22 -52h336q-5 28 -21 52t-39 42t-51 28t-57 10zM323 571q59 0 113 -23 q54 -24 94 -62t64 -90t23 -108q0 -29 -15 -44t-42 -15h-406q5 -28 21 -52q15 -23 39 -41t52 -28t57 -10q37 0 68 13t55 37q10 8 22 14t23 6q23 0 39 -17t15 -40q0 -12 -3 -23t-12 -20q-39 -43 -92 -64t-115 -21q-61 0 -115 23q-54 22 -93 62q-40 40 -63 94t-23 114t23 114 t63 94q39 40 93 64t115 23z"/>
<glyph glyph-name="ecircumflex" horiz-adv-x="646" unicode="ê" d="M323 456q-29 0 -57 -10t-50 -28t-39 -42q-16 -24 -22 -52h336q-5 28 -21 52t-39 42t-51 28t-57 10zM323 571q59 0 113 -23q54 -24 94 -62t64 -90t23 -108q0 -29 -15 -44t-42 -15h-406q5 -28 21 -52q15 -23 39 -41t52 -28t57 -10q37 0 68 13t55 37q10 8 22 14t23 6 q23 0 39 -17t15 -40q0 -12 -3 -23t-12 -20q-39 -43 -92 -64t-115 -21q-61 0 -115 23q-54 22 -93 62q-40 40 -63 94t-23 114t23 114t63 94q39 40 93 64t115 23zM323 648l-42 -41q-7 -7 -15 -11t-18 -4q-20 0 -32 12t-12 28q0 12 2 20t12 18l71 73q6 6 14 10t20 4t20 -4 t14 -10l71 -73q10 -10 12 -18t2 -20q0 -16 -12 -28t-32 -12q-10 0 -18 4t-15 11z"/>
<glyph glyph-name="edieresis" horiz-adv-x="646" unicode="ë" d="M352 707q0 21 13 33t33 13q22 -1 34 -13t12 -33v-35q0 -20 -12 -32t-34 -12q-20 0 -33 12t-13 32v35zM198 707q0 21 13 33t33 13q20 -1 32 -13t13 -33v-35q-1 -20 -13 -32t-32 -12t-33 12t-13 32v35zM323 456q-29 0 -57 -10t-50 -28t-39 -42q-16 -24 -22 -52h336 q-5 28 -21 52t-39 42t-51 28t-57 10zM323 571q59 0 113 -23q54 -24 94 -62t64 -90t23 -108q0 -29 -15 -44t-42 -15h-406q5 -28 21 -52q15 -23 39 -41t52 -28t57 -10q37 0 68 13t55 37q10 8 22 14t23 6q23 0 39 -17t15 -40q0 -12 -3 -23t-12 -20q-39 -43 -92 -64t-115 -21 q-61 0 -115 23q-54 22 -93 62q-40 40 -63 94t-23 114t23 114t63 94q39 40 93 64t115 23z"/>
<glyph glyph-name="icircumflex" horiz-adv-x="236" unicode="î" d="M174 53q0 -27 -16 -43t-42 -15q-24 -1 -40 15t-17 43v448q1 25 17 41t40 16q26 0 42 -16t16 -41v-448zM118 648l-42 -41q-6 -7 -14 -11t-19 -4q-20 0 -32 12t-12 28q1 12 3 20t11 18l71 73q6 6 14 10t20 4t20 -4t14 -10l71 -73q9 -10 11 -18t3 -20q0 -16 -12 -28t-32 -12 q-11 0 -19 4t-14 11z"/>
<glyph glyph-name="idieresis" horiz-adv-x="249" unicode="ï" d="M155 707q0 21 13 33t33 13q21 -1 33 -13t13 -33v-35q-1 -20 -13 -32t-33 -12q-20 0 -33 12t-13 32v35zM1 707q0 21 13 33t33 13q21 -1 33 -13t12 -33v-35q0 -20 -12 -32t-33 -12q-20 0 -33 12t-13 32v35zM180 53q0 -27 -16 -43t-42 -15q-24 -1 -40 15t-17 43v448 q1 25 17 41t40 16q26 0 42 -16t16 -41v-448z"/>
<glyph glyph-name="ocircumflex" horiz-adv-x="646" unicode="ô" d="M323 571q61 1 115 -23t93 -64q40 -40 63 -94t23 -114t-23 -114t-63 -94q-39 -40 -93 -62q-54 -23 -115 -23t-115 23q-54 22 -93 62q-40 40 -63 94t-23 114t23 114t63 94q39 40 93 64t115 23zM323 456q-39 0 -71 -14t-56 -38t-38 -58q-14 -33 -14 -70q0 -38 14 -70t38 -56 t56 -38t71 -14q37 0 69 14t58 38q24 24 38 56t14 70q0 37 -14 70q-14 34 -38 58t-58 38q-32 14 -69 14zM322 648l-42 -41q-6 -7 -14 -11t-19 -4q-20 0 -32 12t-12 28q1 12 3 20t11 18l71 73q6 6 14 10t20 4t20 -4t14 -10l71 -73q9 -10 11 -18t3 -20q0 -16 -12 -28t-32 -12 q-11 0 -19 4t-14 11z"/>
<glyph glyph-name="ugrave" horiz-adv-x="571" unicode="ù" d="M157 758q9 0 22 -4l190 -60q17 -5 25 -18t8 -25q0 -19 -11 -33t-29 -14q-11 0 -23 4l-194 61q-17 5 -25 17t-7 26q0 22 12 34t32 12zM473 -5q-49 0 -58 50q-20 -29 -54 -46t-81 -17q-54 0 -97 18t-73 50t-46 77t-16 99v275q0 27 16 42t41 15t41 -15t16 -42v-275 q0 -58 32 -94t92 -36q61 0 91 35t30 95v275q-1 27 15 42t43 15q25 0 41 -15t16 -42v-456q0 -23 -14 -37t-35 -13z"/>
<glyph glyph-name="ucircumflex" horiz-adv-x="571" unicode="û" d="M473 -5q-49 0 -58 50q-20 -29 -54 -46t-81 -17q-54 0 -97 18t-73 50t-46 77t-16 99v275q0 27 16 42t41 15t41 -15t16 -42v-275q0 -58 32 -94t92 -36q61 0 91 35t30 95v275q-1 27 15 42t43 15q25 0 41 -15t16 -42v-456q0 -23 -14 -37t-35 -13zM285 648l-42 -41 q-7 -7 -15 -11t-18 -4q-20 0 -32 12t-12 28q0 12 2 20t12 18l71 73q6 6 14 10t20 4t20 -4t14 -10l71 -73q10 -10 12 -18t2 -20q0 -16 -12 -28t-32 -12q-10 0 -18 4t-15 11z"/>
<glyph glyph-name="udieresis" horiz-adv-x="571" unicode="ü" d="M314 707q0 21 13 33t33 13q22 -1 34 -13t12 -33v-35q0 -20 -12 -32t-34 -12q-20 0 -33 12t-13 32v35zM160 707q0 21 13 33t33 13q20 -1 32 -13t13 -33v-35q-1 -20 -13 -32t-32 -12t-33 12t-13 32v35zM473 -5q-49 0 -58 50q-20 -29 -54 -46t-81 -17q-54 0 -97 18t-73 50 t-46 77t-16 99v275q0 27 16 42t41 15t41 -15t16 -42v-275q0 -58 32 -94t92 -36q61 0 91 35t30 95v275q-1 27 15 42t43 15q25 0 41 -15t16 -42v-456q0 -23 -14 -37t-35 -13z"/>
<glyph glyph-name="OE" horiz-adv-x="1095" unicode="Œ" d="M144 364q0 -55 20.5 -103t56.5 -84t84.5 -57t104.5 -21q55 0 104 21t85.5 57t57.5 84t21 103t-21 103.5t-57.5 85t-85.5 57.5t-104 21q-56 0 -104.5 -21t-84.5 -57.5t-56.5 -85t-20.5 -103.5zM1016 728q25 0 40.5 -15.5t15.5 -41.5t-15.5 -42t-40.5 -16h-228v-168h219 q26 0 42 -16t16 -41q0 -27 -16 -42t-42 -15h-219v-216h232q26 0 41.5 -15.5t15.5 -41.5q0 -27 -15.5 -42.5t-41.5 -15.5h-290q-24 0 -40.5 15.5t-16.5 42.5v30q-52 -49 -119 -76.5t-144 -27.5q-79 0 -148.5 29.5t-121 81t-81.5 120.5t-30 149q0 79 30 148.5t81.5 121.5 t121 82t148.5 30q77 0 144 -28t119 -77v30q0 26 16.5 41.5t40.5 15.5h286z"/>
<glyph glyph-name="oe" horiz-adv-x="1107" unicode="œ" d="M323 456q-38 0 -70.5 -14t-56.5 -38.5t-38 -57.5t-14 -70t14 -69.5t38 -56.5t56.5 -38t70.5 -14q37 0 69.5 14t57 38t38.5 56.5t14 69.5t-14 70t-38.5 57.5t-57 38.5t-69.5 14zM784 456q-29 0 -57 -10t-50.5 -28t-38.5 -42t-22 -52h336q-5 28 -21 52t-39 42t-51 28 t-57 10zM784 571q60 0 113.5 -23t93.5 -61.5t63.5 -90t23.5 -108.5q0 -29 -15 -44t-42 -15h-406q5 -28 21 -52t39.5 -41.5t51.5 -27.5t57 -10q37 0 68 13t55 37q10 9 22 14.5t23 5.5q23 0 38.5 -17t15.5 -40q0 -12 -3 -23t-12 -20q-39 -43 -92 -64t-115 -21q-70 0 -130 30 t-101 81q-40 -51 -100 -81t-130 -30q-61 0 -114.5 23t-93.5 62.5t-63 93t-23 114.5t23 114.5t63 93.5t93.5 63.5t114.5 23.5q70 0 130 -30.5t100 -81.5q41 51 101 81.5t130 30.5z"/>
<glyph glyph-name="tilde" horiz-adv-x="433" unicode="˜" d="M230 712q19 -14 28 -19t20 -5q9 0 15 6.5t14 20.5q5 8 12 14t20 6q18 0 30.5 -10.5t12.5 -28.5q0 -13 -2.5 -21t-10.5 -21q-13 -23 -36 -39.5t-55 -16.5q-26 0 -43.5 9t-33.5 20q-20 13 -28.5 18t-19.5 5q-9 0 -15 -6.5t-14 -20.5q-5 -8 -12 -14t-20 -6q-18 0 -30.5 10.5 t-12.5 28.5q0 13 2.5 21t10.5 21q13 23 36 39.5t55 16.5q26 0 44 -8.5t33 -19.5z"/>
<glyph glyph-name="endash" horiz-adv-x="625" unicode="–" d="M550 371q27 0 42.5 -16t15.5 -42t-15.5 -41.5t-42.5 -15.5h-476q-24 0 -40.5 15.5t-16.5 41.5t16.5 42t40.5 16h476z"/>
<glyph glyph-name="emdash" horiz-adv-x="705" unicode="—" d="M630 371q25 0 41 -16t16 -42t-16 -41.5t-41 -15.5h-556q-24 0 -40.5 15.5t-16.5 41.5t16.5 42t40.5 16h556z"/>
<glyph glyph-name="quoteleft" horiz-adv-x="162" unicode="‘" d="M54 770q15 0 27.5 -8t17.5 -25l54 -170q4 -15 4 -24q0 -24 -15.5 -36t-33.5 -12q-36 0 -47 34l-52 170q-4 12 -4 20q0 26 15.5 38.5t33.5 12.5z"/>
<glyph glyph-name="quotedblleft" horiz-adv-x="315" unicode="“" d="M54 770q15 0 27.5 -8t17.5 -25l54 -170q4 -15 4 -24q0 -24 -15.5 -36t-33.5 -12q-36 0 -47 34l-52 170q-4 12 -4 20q0 26 15.5 38.5t33.5 12.5zM208 770q15 0 27.5 -8t17.5 -25l54 -170q4 -15 4 -24q0 -24 -15.5 -36t-33.5 -12q-36 0 -47 34l-52 170q-4 12 -4 20 q0 26 15.5 38.5t33.5 12.5z"/>
<glyph glyph-name="quotedblright" horiz-adv-x="315" unicode="”" d="M262 770q18 0 33.5 -12.5t15.5 -38.5q0 -8 -4 -20l-52 -170q-11 -34 -47 -34q-18 0 -33.5 12t-15.5 36q0 9 4 24l54 170q5 17 17.5 25t27.5 8zM108 770q18 0 33.5 -12.5t15.5 -38.5q0 -8 -4 -20l-52 -170q-11 -34 -47 -34q-18 0 -33.5 12t-15.5 36q0 9 4 24l54 170 q5 17 17.5 25t27.5 8z"/>
<glyph glyph-name="guilsinglleft" horiz-adv-x="248" unicode="‹" d="M17 283q0 13 3.5 23.5t8.5 19.5l101 194q15 29 46 29q20 0 35.5 -14t15.5 -34q0 -14 -8 -28l-105 -190l106 -206q8 -16 8 -29q0 -21 -15.5 -34t-34.5 -13q-18 0 -28 6.5t-18 22.5l-105 214q-4 8 -7 18t-3 21z"/>
<glyph glyph-name="guilsinglright" horiz-adv-x="248" unicode="›" d="M230 283q0 -11 -3 -21t-7 -18l-105 -214q-8 -16 -18 -22.5t-28 -6.5q-19 0 -34.5 13t-15.5 34q0 13 8 29l106 206l-105 190q-8 14 -8 28q0 20 15.5 34t35.5 14q31 0 46 -29l101 -194q5 -9 8.5 -19.5t3.5 -23.5z"/>
<glyph glyph-name="fraction" horiz-adv-x="228" unicode="⁄" d="M305 730q14 0 26.5 -10t12.5 -27q0 -5 -2 -10.5t-4 -10.5l-375 -656q-6 -11 -15.5 -15t-17.5 -4q-15 0 -27.5 11t-12.5 28q0 11 5 20l379 657q5 8 13.5 12.5t17.5 4.5z"/>
<glyph glyph-name="Euro" horiz-adv-x="797" unicode="€" d="M89 488q19 56 54.5 103.5t83 82t104 53.5t119.5 19q83 0 157.5 -34.5t125.5 -92.5q6 -7 11 -16t5 -22q0 -27 -16 -42.5t-42 -15.5q-19 0 -28 6.5t-14 12.5q-38 42 -88.5 65.5t-110.5 23.5q-78 0 -140 -40t-96 -103h364q20 0 32.5 -13t12.5 -33q0 -21 -12.5 -33.5 t-32.5 -12.5h-392q-2 -8 -2 -16v-16t0.5 -15t1.5 -15h288q20 0 33 -12.5t13 -33.5q0 -20 -13 -32.5t-33 -12.5h-261q16 -32 40.5 -58.5t55.5 -45.5t66.5 -29.5t74.5 -10.5q60 0 109.5 21.5t87.5 63.5q8 10 18.5 16.5t24.5 6.5q26 0 42.5 -15t16.5 -39q0 -27 -18 -47 q-53 -57 -124.5 -89.5t-156.5 -32.5q-63 0 -120.5 19t-104.5 53.5t-82.5 82t-54.5 104.5q-21 0 -34.5 12.5t-13.5 32.5q0 18 8.5 29t21.5 16q-1 8 -1 15.5v15.5v16.5t1 16.5q-17 5 -23.5 17.5t-6.5 27.5q0 20 13 32.5t36 13.5z"/>
</font>
</defs>
</svg>
